<?xml version="1.0" encoding="utf-8"?>
<!-- Svg Vector Icons : http://www.onlinewebfonts.com/icon -->
<!DOCTYPE svg PUBLIC "-//W3C//DTD SVG 1.1//EN" "http://www.w3.org/Graphics/SVG/1.1/DTD/svg11.dtd">
<svg version="1.1" xmlns="http://www.w3.org/2000/svg" xmlns:xlink="http://www.w3.org/1999/xlink" x="0px" y="0px" viewBox="0 0 1000 1000" enable-background="new 0 0 1000 1000" xml:space="preserve">
<metadata> Svg Vector Icons : http://www.onlinewebfonts.com/icon </metadata>
<g><g transform="translate(0.000000,512.000000) scale(0.100000,-0.100000)"><path d="M2716.5,4983.3c-77.2-46.3-113.9-146.7-84.9-223.9c11.6-30.9,102.3-164.1,200.7-297.3c245.1-332,521.2-752.8,611.9-932.3c42.5-83,75.3-154.4,75.3-160.2s-29-9.6-65.6-9.6c-117.7,0-270.2-38.6-391.9-98.4c-96.5-46.3-160.2-100.4-308.8-264.4c-459.4-501.9-563.6-582.9-756.7-582.9c-100.4,0-181.4,29-270.2,98.4c-98.4,77.2-274.1,17.4-306.9-102.3c-36.7-135.1,30.9-233.6,223.9-328.1c169.9-83,401.5-98.4,584.9-36.7c258.7,86.9,393.8,191.1,741.2,581c198.8,222,324.3,324.3,376.4,305c7.7-3.9-23.2-65.6-73.3-140.9c-297.3-457.5-710.3-1150.4-1015.3-1708.3C1172.3-898.2,743.7-2390.3,1031.3-3179.8c195-536.6,648.6-930.4,1389.8-1206.4c1405.2-525.1,3764-525.1,5169.3,0c830,308.8,1314.5,785.6,1441.9,1420.7c40.6,202.7,27,667.9-29,945.8c-187.2,924.6-665.9,2063.5-1455.4,3459.1c-218.1,384.1-567.5,963.2-779.8,1291.3c-88.8,137.1-158.3,250.9-156.3,254.8c17.4,15.4,303.1-36.7,376.4-69.5c212.3-92.7,285.7-206.5,420.8-656.3c50.2-164.1,112-343.6,137-399.6c86.9-183.4,316.6-393.8,465.2-422.7c111.9-23.2,237.4,86.9,237.4,208.5c0,50.2-67.6,169.9-94.6,169.9c-36.7,0-140.9,104.2-179.5,181.4c-21.2,42.5-73.3,183.4-115.8,310.8c-110,339.7-262.5,640.8-388,768.2c-175.7,181.5-449.8,287.6-804.9,314.6l-173.7,13.5l84.9,160.2c108.1,200.7,316.6,517.3,567.5,860.9c229.7,312.7,235.5,322.4,235.5,401.5c0,44.4-19.3,81.1-65.6,127.4l-65.6,65.6H5013.5C2841.9,5020,2774.4,5018.1,2716.5,4983.3z M6758.5,4601.1c-1.9-9.7-88.8-140.9-191.1-295.3c-235.5-353.2-347.5-548.2-440.1-764.4l-75.3-171.8l-1052-5.8l-1052-3.9l-25.1,71.4c-57.9,183.4-289.5,592.6-540.5,963.2c-73.3,108.1-133.2,200.7-133.2,208.5c0,5.8,791.4,11.6,1758.5,11.6C5974.8,4614.6,6762.3,4608.9,6758.5,4601.1z M6397.5,2545.4C8044-23.8,8870.2-2096.9,8603.8-2990.6c-214.3-718.1-1090.6-1167.8-2603.9-1335.8c-368.7-40.5-1696.7-34.7-2065.4,9.6c-876.3,106.2-1530.7,305-1968.9,598.4c-158.3,106.2-370.6,328.1-457.5,474.9c-38.6,65.6-88.8,191.1-112,277.9c-38.6,140.9-42.5,189.2-32.8,447.8c13.5,368.7,67.6,644.7,220.1,1119.6c339.7,1059.7,1109.9,2548,2113.7,4088.3l173.7,264.5h1133.1H6135L6397.5,2545.4z"/><path d="M4202.8,3931.3c-133.2-57.9-166-214.3-67.6-324.3l56-63.7l731.6-5.8c781.8-5.8,843.5,0,911.1,86.9c48.3,59.8,52.1,171.8,9.6,235.5c-65.6,94.6-108.1,98.4-870.6,98.4C4419,3956.4,4249.1,3950.6,4202.8,3931.3z"/><path d="M4202.8,2742.3c-110-44.4-160.2-210.4-92.6-306.9c65.6-92.7,110-98.4,866.7-98.4c756.7,0,801.1,5.8,866.7,98.4c38.6,57.9,40.5,169.9,0,225.8c-67.6,98.4-86.9,100.4-870.6,98.4C4571.5,2759.6,4224,2751.9,4202.8,2742.3z"/><path d="M4899.6,879.6c-171.8-34.7-415-156.3-544.3-270.2c-137-119.7-279.9-341.7-341.7-525c-113.9-347.5-113.9-625.4,0-1158.2c7.7-42.5,3.9-44.4-137.1-44.4c-167.9,0-245.2-30.9-289.5-115.8c-38.6-75.3-36.7-131.3,9.6-206.5c46.3-77.2,129.3-102.3,335.9-102.3H4085l-11.6-274.1c-15.4-426.6-94.6-650.5-314.6-884.1c-133.2-140.9-162.1-214.3-123.5-306.9c52.1-129.3,210.4-156.3,341.7-61.8c189.2,137,407.3,214.3,604.2,214.3c156.4,0,283.8-36.7,482.6-137.1c351.3-175.7,696.8-177.6,959.3-3.9c148.6,98.4,227.8,206.5,227.8,310.8c0,113.9-86.9,196.9-204.6,196.9c-67.6,0-88.8-13.5-171.8-94.6c-179.5-179.5-333.9-183.4-687.2-15.4c-276,131.3-364.8,152.5-611.9,152.5c-167.9,0-189.2,3.9-177.6,32.8c46.3,113.9,86.9,401.5,86.9,623.5v245.1l519.2,5.8l521.2,5.8l57.9,56c75.3,73.4,90.7,144.8,48.3,235.5c-56,117.8-92.7,123.5-677.5,123.5h-519.2l-46.3,266.4c-61.8,335.9-61.8,559.8-1.9,758.6c59.8,195,127.4,314.6,237.4,413.1c104.2,92.6,212.3,137,407.3,164.1c278,40.5,484.5-34.7,729.7-262.5c135.1-127.4,160.2-142.8,225.8-142.8c139,0,243.2,139,196.9,262.5c-27,67.6-127.4,177.6-270.2,287.6C5611.9,860.3,5247.1,951,4899.6,879.6z"/></g></g>
</svg>